<?xml version="1.0" standalone="no"?>
<!DOCTYPE svg PUBLIC "-//W3C//DTD SVG 20010904//EN"
 "http://www.w3.org/TR/2001/REC-SVG-20010904/DTD/svg10.dtd">
<svg version="1.0" xmlns="http://www.w3.org/2000/svg"
 width="16.000000pt" height="16.000000pt" viewBox="0 0 16.000000 16.000000"
 preserveAspectRatio="xMidYMid meet">
<metadata>
Created by potrace 1.11, written by Peter Selinger 2001-2013
</metadata>
<g transform="translate(0.000000,16.000000) scale(0.001812,-0.001812)"
fill="#000000" stroke="none">
<path d="M1813 8768 c35 -64 60 -110 128 -231 22 -38 39 -75 39 -82 0 -7 4
-15 8 -17 9 -3 45 -67 160 -278 19 -36 43 -78 52 -95 10 -16 31 -55 48 -85 34
-63 171 -311 212 -385 36 -65 69 -125 130 -235 34 -63 74 -135 89 -160 14 -25
26 -48 26 -52 0 -4 6 -13 13 -20 6 -6 12 -17 12 -24 0 -7 3 -14 8 -16 4 -1 21
-30 38 -63 17 -33 89 -163 159 -290 70 -126 138 -250 152 -275 13 -25 28 -52
34 -60 8 -13 71 -127 179 -325 28 -51 60 -109 106 -192 63 -113 90 -161 118
-214 17 -32 51 -92 75 -135 24 -44 53 -97 66 -119 12 -22 35 -65 52 -95 17
-30 55 -101 86 -156 88 -161 136 -248 147 -264 6 -8 15 -26 20 -38 6 -13 28
-54 49 -90 21 -37 55 -98 76 -137 21 -38 66 -121 101 -182 35 -62 64 -117 64
-122 0 -5 3 -11 8 -13 4 -1 16 -21 27 -43 20 -41 114 -207 120 -214 2 -2 12
13 22 32 10 20 54 100 97 179 44 79 95 172 114 208 19 36 43 77 54 92 10 14
18 29 18 33 0 3 25 50 55 102 30 53 55 99 55 102 0 4 11 23 25 44 14 20 23 37
20 37 -4 0 2 12 13 28 16 23 106 183 225 402 16 30 38 69 47 85 10 17 32 56
49 88 17 31 45 83 62 115 17 31 39 71 49 87 10 17 30 53 45 80 15 28 49 88 75
135 26 47 63 114 82 150 19 36 46 83 58 105 12 22 43 78 68 125 25 47 48 87
51 90 3 3 17 25 29 50 46 87 115 215 122 225 7 10 34 58 105 190 21 39 53 96
71 128 19 32 34 62 34 67 0 4 3 10 8 12 4 2 20 28 35 58 43 85 81 155 87 160
3 3 13 21 24 40 59 111 102 189 123 222 13 21 23 44 23 52 0 8 4 16 8 18 5 2
26 35 46 73 21 39 54 99 73 135 20 36 39 70 43 75 4 6 27 46 51 90 23 44 53
98 65 120 13 22 36 65 52 95 16 30 40 73 52 95 13 22 36 63 51 90 16 28 41 75
56 105 16 30 31 57 34 60 5 5 43 73 121 218 l39 72 -2636 0 -2636 0 34 -62z
m4177 -571 c0 -7 -6 -21 -14 -32 -7 -11 -35 -60 -61 -110 -27 -49 -51 -92 -54
-95 -3 -3 -15 -23 -26 -45 -11 -22 -34 -65 -51 -95 -38 -67 -100 -181 -128
-235 -12 -22 -24 -41 -28 -43 -5 -2 -8 -8 -8 -14 0 -5 -17 -40 -39 -76 -21
-37 -58 -103 -81 -147 -24 -44 -51 -93 -61 -110 -10 -16 -34 -61 -55 -100 -20
-38 -40 -74 -44 -80 -4 -5 -22 -37 -40 -70 -18 -33 -44 -80 -58 -105 -34 -61
-61 -111 -112 -205 -23 -44 -50 -91 -58 -105 -9 -14 -23 -38 -32 -55 -47 -88
-104 -191 -110 -200 -4 -5 -31 -55 -60 -110 -29 -55 -56 -102 -60 -105 -3 -3
-16 -25 -28 -50 -12 -25 -36 -70 -53 -100 -32 -56 -88 -158 -121 -220 -10 -19
-29 -53 -41 -75 -13 -22 -39 -69 -58 -105 -19 -36 -37 -67 -40 -70 -4 -3 -16
-25 -28 -49 -13 -24 -26 -39 -31 -35 -11 12 -160 283 -160 291 0 4 -6 14 -14
22 -7 9 -35 57 -61 106 -27 50 -57 106 -68 125 -11 19 -32 58 -47 85 -15 28
-39 70 -53 95 -107 191 -217 394 -217 401 0 4 -3 9 -7 11 -5 2 -19 23 -32 48
-32 61 -73 136 -103 190 -35 63 -177 321 -223 405 -21 39 -51 92 -67 118 -15
26 -28 50 -28 52 0 2 -17 34 -39 72 -60 107 -91 163 -129 233 -19 36 -43 77
-54 93 -11 15 -16 27 -13 27 3 0 -2 12 -13 28 -10 15 -34 56 -53 92 -18 36
-36 67 -39 70 -3 3 -11 16 -17 30 -7 14 -27 52 -46 85 -18 33 -48 86 -65 117
l-32 57 1580 0 c1246 0 1580 -2 1580 -12z"/>
<path d="M1390 8056 c0 -6 6 -20 13 -31 8 -11 30 -51 51 -88 20 -37 45 -82 55
-100 10 -18 33 -59 51 -92 18 -33 54 -99 81 -146 27 -48 49 -91 49 -98 0 -6 4
-11 9 -11 5 0 12 -11 15 -25 4 -14 11 -25 16 -25 6 0 10 -7 10 -16 0 -8 11
-32 25 -52 14 -20 25 -39 25 -43 0 -3 23 -45 50 -93 28 -48 50 -91 50 -96 0
-4 3 -10 8 -12 4 -1 15 -19 24 -38 10 -19 32 -62 51 -95 19 -33 83 -150 144
-260 61 -110 122 -220 135 -245 14 -25 40 -72 58 -105 18 -33 103 -186 188
-340 85 -154 170 -309 190 -345 19 -36 78 -141 130 -235 52 -93 111 -199 130
-235 19 -36 54 -99 78 -141 24 -42 44 -81 44 -87 0 -7 5 -12 10 -12 6 0 10 -5
10 -10 0 -6 31 -66 69 -133 38 -67 75 -135 82 -152 8 -16 16 -32 19 -35 4 -3
26 -41 50 -85 24 -44 51 -93 60 -110 9 -16 45 -82 80 -145 35 -63 72 -131 83
-150 11 -19 38 -69 60 -110 22 -41 48 -87 59 -102 11 -16 16 -28 12 -28 -3 0
-1 -7 7 -16 7 -8 23 -34 35 -57 39 -73 60 -111 86 -157 14 -25 40 -72 58 -105
32 -57 63 -114 100 -180 9 -16 38 -70 65 -120 26 -49 52 -95 57 -101 5 -7 27
-47 50 -90 23 -44 49 -92 59 -109 10 -16 32 -57 50 -90 17 -33 61 -111 95
-174 35 -62 64 -115 64 -118 0 -2 6 -11 14 -19 16 -16 20 -10 90 119 20 37 45
82 55 100 10 18 37 68 61 112 24 44 54 97 67 117 12 21 23 40 23 43 0 5 95
179 137 250 13 22 29 52 36 68 6 15 15 27 19 27 4 0 8 9 8 19 0 11 4 22 9 25
5 3 58 95 117 203 60 109 119 216 131 238 26 45 75 135 131 240 20 39 39 72
42 75 6 6 13 18 75 135 26 50 56 101 65 115 10 14 25 41 34 60 9 19 26 53 39
75 21 37 51 91 130 235 16 30 42 75 56 100 14 24 37 66 51 92 26 49 122 224
166 305 15 26 36 60 46 76 11 15 16 27 12 27 -3 0 -2 6 4 13 10 13 219 385
292 522 23 44 46 85 50 90 4 6 23 39 42 75 20 36 44 81 55 100 11 19 55 100
98 180 44 80 82 147 85 150 3 3 16 28 29 55 14 28 27 52 30 55 3 3 19 30 35
60 16 30 45 82 63 115 19 33 39 72 46 88 6 15 15 27 19 27 4 0 8 5 8 10 0 6
79 152 175 325 96 174 175 320 175 325 0 4 3 10 8 12 4 2 15 19 24 38 10 19
31 60 49 90 41 72 78 140 122 221 l35 65 -354 1 -354 0 -31 -61 c-17 -34 -35
-66 -40 -72 -5 -6 -21 -33 -35 -60 -27 -50 -47 -86 -88 -159 -12 -22 -42 -76
-66 -120 -23 -44 -52 -95 -63 -115 -11 -19 -53 -96 -95 -170 -41 -74 -84 -153
-96 -175 -13 -22 -40 -71 -61 -110 -20 -38 -45 -83 -55 -100 -9 -16 -31 -55
-47 -85 -71 -130 -208 -377 -224 -405 -10 -16 -26 -46 -36 -65 -10 -19 -43
-81 -75 -137 -32 -56 -58 -105 -58 -108 0 -3 -16 -30 -35 -60 -19 -30 -32 -55
-30 -55 3 0 -6 -17 -20 -37 -14 -21 -25 -43 -25 -50 0 -7 -4 -13 -9 -13 -5 0
-11 -8 -14 -17 -4 -10 -17 -36 -29 -58 -37 -64 -122 -218 -135 -245 -7 -14
-17 -32 -22 -40 -25 -38 -131 -233 -131 -241 0 -5 -4 -9 -10 -9 -5 0 -10 -9
-10 -19 0 -11 -3 -21 -7 -23 -5 -1 -16 -19 -27 -38 -32 -60 -82 -153 -106
-195 -13 -22 -34 -60 -47 -85 -13 -25 -32 -58 -42 -75 -9 -16 -36 -64 -58
-105 -40 -75 -69 -126 -119 -217 -15 -27 -40 -73 -57 -103 -17 -30 -38 -67
-48 -81 -10 -14 -16 -28 -13 -31 2 -3 -2 -11 -11 -18 -8 -7 -15 -16 -15 -20 0
-7 -23 -50 -127 -235 -18 -33 -49 -90 -69 -128 -32 -60 -38 -65 -49 -50 -10
16 -153 274 -225 408 -15 28 -49 88 -75 135 -64 114 -80 144 -161 290 -37 69
-72 127 -76 128 -4 2 -8 10 -8 19 0 8 -8 27 -18 41 -11 15 -26 41 -34 57 -30
58 -63 120 -68 125 -3 3 -18 30 -35 60 -16 30 -39 73 -52 95 -12 22 -26 47
-30 55 -4 8 -59 110 -123 225 -65 116 -134 242 -155 280 -21 39 -41 75 -45 80
-4 6 -27 46 -50 90 -24 44 -51 94 -60 110 -211 380 -280 507 -280 515 0 6 -4
10 -9 10 -5 0 -11 8 -14 18 -3 9 -24 49 -46 87 -22 39 -46 81 -53 95 -7 14
-40 75 -75 137 -35 62 -63 117 -63 123 0 5 -4 10 -10 10 -5 0 -10 4 -10 9 0 5
-31 64 -68 132 -38 68 -82 149 -99 179 -17 30 -90 163 -163 295 -73 132 -149
269 -168 305 -20 36 -37 67 -40 70 -2 3 -161 5 -353 6 -254 1 -349 -2 -349
-10z"/>
<path d="M1112 5980 c82 -149 91 -166 124 -223 19 -32 34 -60 34 -61 0 -4 74
-139 157 -286 11 -19 39 -71 63 -115 24 -44 56 -102 72 -128 15 -26 28 -50 28
-52 0 -2 15 -30 34 -62 18 -32 49 -87 68 -123 53 -99 88 -161 111 -200 12 -19
22 -41 24 -49 1 -8 5 -17 10 -20 4 -3 13 -15 19 -26 6 -11 30 -56 54 -100 23
-44 46 -84 50 -90 4 -5 25 -44 47 -85 22 -41 49 -91 60 -110 33 -59 178 -322
210 -380 17 -30 43 -77 58 -105 97 -175 141 -254 158 -285 11 -19 44 -80 75
-135 30 -55 66 -120 80 -145 13 -25 35 -63 47 -85 12 -22 86 -157 165 -300 79
-143 156 -282 170 -310 14 -27 27 -52 30 -55 3 -3 10 -14 16 -25 109 -201 201
-366 216 -387 11 -16 16 -28 13 -28 -3 0 2 -12 13 -27 10 -16 34 -57 53 -93
18 -36 36 -67 39 -70 3 -3 14 -23 25 -45 11 -22 22 -42 25 -45 5 -5 12 -17 98
-180 30 -58 59 -106 64 -108 4 -2 8 -7 8 -12 0 -4 43 -85 95 -179 52 -95 95
-176 95 -181 0 -6 4 -10 8 -10 4 0 13 -12 19 -27 6 -16 28 -57 48 -93 20 -36
50 -89 67 -119 16 -30 42 -77 58 -105 27 -51 55 -102 106 -194 15 -26 41 -72
57 -102 131 -237 229 -415 231 -417 1 -1 19 28 39 65 48 86 95 173 225 407 58
105 116 210 129 235 14 25 32 59 41 75 9 17 23 38 31 48 8 9 11 17 6 17 -4 0
-3 6 3 13 11 13 52 85 90 157 13 25 34 63 47 85 14 22 42 74 62 115 21 41 41
77 44 80 4 3 24 37 44 75 62 116 97 179 105 190 4 6 25 44 47 85 23 41 57 104
78 140 20 36 42 77 48 92 6 16 14 28 18 28 4 0 10 11 13 24 3 14 12 31 19 38
6 7 20 29 29 48 16 33 65 122 121 221 14 25 37 66 50 90 62 114 175 320 187
339 17 27 140 252 140 256 0 2 13 25 28 51 16 26 46 80 66 118 21 39 71 129
111 200 40 72 87 157 105 190 18 33 55 101 83 150 29 50 52 95 53 102 1 6 11
22 23 34 12 13 21 31 21 41 0 10 4 18 9 18 5 0 11 6 13 13 3 10 113 217 138
257 10 16 69 124 135 245 70 129 126 230 136 245 5 8 17 32 26 53 9 20 20 37
25 37 4 0 8 4 8 9 0 5 29 62 65 126 36 65 65 122 65 127 0 4 5 8 10 8 6 0 10
6 10 13 0 7 11 29 25 50 14 20 23 37 20 37 -2 0 11 25 30 55 19 30 35 56 35
59 0 3 33 65 74 138 40 73 90 165 111 203 21 39 41 75 45 80 4 6 31 55 60 110
29 55 56 102 59 105 3 3 16 25 29 50 74 143 98 186 107 192 6 4 8 8 5 9 -3 1
-163 3 -357 3 l-352 2 -78 -141 c-43 -77 -86 -153 -95 -170 -10 -16 -28 -51
-40 -77 -13 -27 -26 -48 -30 -48 -5 0 -8 -6 -8 -13 0 -7 -8 -24 -17 -37 -10
-14 -19 -32 -20 -40 -1 -8 -7 -16 -12 -18 -6 -2 -11 -8 -11 -13 0 -5 -20 -44
-44 -87 -57 -102 -92 -165 -128 -232 -17 -30 -33 -57 -37 -60 -3 -3 -7 -10 -8
-16 -1 -6 -17 -38 -36 -70 -19 -33 -51 -90 -72 -129 -21 -38 -105 -190 -187
-338 -81 -147 -148 -272 -148 -277 0 -6 -4 -10 -9 -10 -5 0 -11 -8 -14 -17 -5
-17 -26 -55 -117 -218 -18 -33 -45 -80 -58 -105 -14 -25 -33 -58 -42 -75 -9
-16 -59 -106 -110 -200 -51 -93 -96 -174 -100 -180 -4 -5 -25 -44 -47 -85 -22
-41 -49 -91 -60 -110 -11 -19 -51 -91 -89 -160 -38 -69 -73 -132 -79 -142 -5
-9 -21 -38 -35 -65 -14 -26 -27 -50 -30 -53 -3 -3 -16 -27 -30 -55 -14 -27
-27 -52 -31 -55 -3 -3 -17 -28 -31 -56 -14 -27 -36 -68 -48 -90 -12 -21 -46
-82 -75 -134 -148 -265 -195 -352 -195 -359 0 -4 -8 -16 -17 -27 -10 -11 -19
-25 -20 -31 -1 -6 -17 -37 -36 -69 -31 -54 -82 -145 -130 -234 -22 -40 -54
-99 -149 -270 -38 -67 -68 -125 -68 -130 0 -5 -5 -10 -11 -12 -5 -2 -11 -12
-13 -23 -7 -45 -32 -23 -83 72 -29 54 -68 125 -86 158 -19 33 -51 92 -72 130
-22 39 -49 88 -62 110 -12 22 -26 47 -30 55 -4 8 -23 44 -44 80 -55 99 -94
171 -119 218 -12 23 -26 45 -31 48 -5 3 -9 14 -9 24 0 10 -4 20 -8 22 -7 3
-31 43 -119 206 -25 47 -75 136 -106 192 -27 47 -58 103 -97 175 -18 33 -66
119 -106 192 -41 72 -74 137 -74 142 0 6 -4 11 -9 11 -5 0 -11 8 -14 18 -3 9
-22 46 -42 82 -20 36 -46 83 -58 105 -12 22 -24 42 -27 45 -3 3 -22 37 -42 76
-68 129 -73 139 -78 144 -3 3 -13 21 -24 40 -26 51 -76 140 -96 175 -9 17 -33
59 -52 95 -46 84 -108 197 -174 315 -37 66 -60 108 -86 155 -27 49 -184 334
-215 390 -11 19 -58 105 -105 190 -47 85 -151 274 -232 418 -80 145 -146 268
-146 272 0 5 -3 10 -7 12 -5 2 -16 19 -25 38 -10 19 -30 58 -46 85 -16 28 -50
91 -77 140 -26 50 -50 92 -52 95 -3 3 -164 5 -359 5 l-354 1 42 -76z"/>
</g>
</svg>
